<?xml version="1.0" encoding="UTF-8" standalone="no"?>
<svg
   xmlns:dc="http://purl.org/dc/elements/1.1/"
   xmlns:cc="http://creativecommons.org/ns#"
   xmlns:rdf="http://www.w3.org/1999/02/22-rdf-syntax-ns#"
   xmlns:svg="http://www.w3.org/2000/svg"
   xmlns="http://www.w3.org/2000/svg"
   xmlns:sodipodi="http://sodipodi.sourceforge.net/DTD/sodipodi-0.dtd"
   xmlns:inkscape="http://www.inkscape.org/namespaces/inkscape"
   width="64"
   height="64"
   viewBox="0 0 64 64"
   fill="none"
   version="1.1"
   id="svg1402"
   sodipodi:docname="dark-baterias.svg"
   inkscape:version="0.92.4 (5da689c313, 2019-01-14)">
  <metadata
     id="metadata1408">
    <rdf:RDF>
      <cc:Work
         rdf:about="">
        <dc:format>image/svg+xml</dc:format>
        <dc:type
           rdf:resource="http://purl.org/dc/dcmitype/StillImage" />
        <dc:title></dc:title>
      </cc:Work>
    </rdf:RDF>
  </metadata>
  <defs
     id="defs1406" />
  <sodipodi:namedview
     pagecolor="#ffffff"
     bordercolor="#666666"
     borderopacity="1"
     objecttolerance="10"
     gridtolerance="10"
     guidetolerance="10"
     inkscape:pageopacity="0"
     inkscape:pageshadow="2"
     inkscape:window-width="2560"
     inkscape:window-height="1027"
     id="namedview1404"
     showgrid="false"
     inkscape:zoom="13.40625"
     inkscape:cx="39.051564"
     inkscape:cy="29.561999"
     inkscape:window-x="1912"
     inkscape:window-y="22"
     inkscape:window-maximized="1"
     inkscape:current-layer="svg1402" />
  <rect
     x="12"
     y="9"
     width="40"
     height="54"
     rx="4"
     stroke="#322153"
     stroke-width="2"
     id="rect1388"
     style="stroke:#ffffff;stroke-opacity:1" />
  <path
     d="M22 5C22 2.23858 24.2386 0 27 0H37C39.7614 0 42 2.23858 42 5V10H22V5Z"
     fill="#34CB79"
     id="path1390" />
  <path
     d="M23 5C23 2.79086 24.7909 1 27 1H37C39.2091 1 41 2.79086 41 5V9H23V5Z"
     stroke="#322153"
     stroke-width="2"
     id="path1392"
     style="stroke:#ffffff;stroke-opacity:1" />
  <path
     d="M23 38.8261L32 22V32.1739H41L32 49V38.8261H23Z"
     fill="#34CB79"
     id="path1394" />
  <path
     d="M23 38.8261L32 22V32.1739H41L32 49V38.8261H23Z"
     stroke="#322153"
     stroke-width="2"
     stroke-linejoin="round"
     id="path1396"
     style="stroke:#ffffff;stroke-opacity:1" />
  <line
     x1="12"
     y1="14"
     x2="53"
     y2="14"
     stroke="#322153"
     stroke-width="2"
     id="line1398"
     style="stroke:#ffffff;stroke-opacity:1" />
  <line
     x1="12"
     y1="58"
     x2="53"
     y2="58"
     stroke="#322153"
     stroke-width="2"
     id="line1400"
     style="stroke:#ffffff;stroke-opacity:1" />
</svg>
